<svg version="1.1" id="Layer_1" xmlns="http://www.w3.org/2000/svg" xmlns:xlink="http://www.w3.org/1999/xlink" x="0px" y="0px"
	 width="100%" viewBox="0 0 327 154" enable-background="new 0 0 327 154" xml:space="preserve">
<path fill="#FFFEFE" opacity="1.000000" stroke="none" 
	d="
M1.000000,154.000000 
	C1.000000,103.041130 1.000000,52.082256 1.000000,1.061693 
	C109.999992,1.061693 219.000000,1.061693 328.000000,1.061693 
	C328.000000,21.762562 328.000000,42.412621 327.536224,63.605385 
	C319.921631,64.148087 312.770813,64.148087 307.096893,64.148087 
	C298.634430,75.735039 290.740173,86.544014 282.845886,97.352989 
	C282.537933,97.189041 282.229950,97.025085 281.921967,96.861137 
	C283.160828,85.939972 284.399689,75.018799 285.640533,64.080055 
	C277.738739,64.080055 268.583527,64.253365 259.440796,63.990585 
	C256.018036,63.892208 254.025085,65.090057 252.092300,67.786896 
	C245.081757,77.568756 237.826950,87.175568 230.664291,96.848427 
	C230.286331,96.707306 229.908371,96.566185 229.530411,96.425072 
	C230.795212,85.637360 232.060013,74.849648 233.217758,64.974968 
	C217.849197,64.974968 201.584061,65.026863 185.319595,64.945770 
	C179.899490,64.918747 174.435959,64.014236 169.072525,64.465202 
	C161.068497,65.138168 153.167511,67.226006 145.164505,67.675217 
	C134.516678,68.272896 124.876343,71.261261 116.003387,77.005379 
	C116.023705,77.030350 116.059853,77.083611 115.904968,76.733368 
	C116.826172,73.922333 117.902275,71.461540 119.105469,68.827896 
	C119.232567,68.655060 119.271553,68.227753 119.184959,68.130394 
	C119.098366,68.033035 119.262215,68.224747 119.528458,68.043030 
	C119.994873,67.250450 120.195038,66.639580 120.522537,65.552223 
	C119.746544,64.784119 118.843170,64.238411 117.939911,64.238586 
	C101.639183,64.241829 85.338470,64.310944 68.781403,64.264893 
	C68.448929,64.658829 68.372803,65.153831 68.499802,65.975281 
	C68.579285,67.753227 68.752502,69.308601 68.286560,70.640335 
	C63.084282,85.509056 58.006229,100.427513 52.436687,115.159416 
	C48.176292,126.428520 40.502689,135.332016 29.966766,141.000977 
	C20.670977,146.002670 10.682573,149.717148 1.000000,154.000000 
M234.002823,29.649849 
	C234.002823,29.649849 234.039322,30.098846 233.689972,30.764271 
	C226.025955,33.142082 218.457748,35.921680 210.669617,37.779083 
	C203.585190,39.468662 196.266174,40.185448 189.041977,41.274052 
	C184.985321,41.885345 180.926331,42.627983 176.841888,42.877483 
	C168.348587,43.396290 159.836792,43.608578 151.335754,44.013046 
	C150.744598,44.041168 150.148972,44.570446 149.606674,44.941586 
	C140.375000,51.259815 131.151428,57.589893 121.926071,63.917362 
	C136.240860,63.011776 150.275360,61.612755 164.007446,58.758663 
	C177.614929,55.930470 191.207367,52.443638 204.272827,47.757854 
	C217.478958,43.021626 230.897720,37.814831 242.620041,30.309893 
	C253.884506,23.098089 267.727325,19.156525 276.227539,6.462866 
	C274.391083,7.095873 273.163940,7.374979 272.067841,7.918374 
	C257.209564,15.284504 241.644958,20.096294 225.005569,21.106506 
	C223.346832,21.207209 221.702637,21.646101 220.046829,21.678288 
	C214.708954,21.782045 209.363800,21.927914 204.030899,21.758860 
	C197.989319,21.567339 191.157883,19.080038 186.104568,21.129122 
	C177.971619,24.427000 171.005722,30.612505 163.587585,35.638268 
	C163.174911,35.917850 163.133377,36.745251 162.682358,37.950119 
	C187.144165,37.784370 210.763092,35.176510 234.002823,29.649849 
z"/>
<path fill="#2845A0" opacity="1.000000" stroke="none" 
	d="
M118.978363,69.000740 
	C117.902275,71.461540 116.826172,73.922333 115.654381,76.580322 
	C115.566154,77.081093 115.573624,77.384651 115.581085,77.688217 
	C115.715080,77.452278 115.849075,77.216347 115.983078,76.980408 
	C124.876343,71.261261 134.516678,68.272896 145.164505,67.675217 
	C153.167511,67.226006 161.068497,65.138168 169.072525,64.465202 
	C174.435959,64.014236 179.899490,64.918747 185.319595,64.945770 
	C201.584061,65.026863 217.849197,64.974968 233.217758,64.974968 
	C232.060013,74.849648 230.795212,85.637360 229.530411,96.425072 
	C229.908371,96.566185 230.286331,96.707306 230.664291,96.848427 
	C237.826950,87.175568 245.081757,77.568756 252.092300,67.786896 
	C254.025085,65.090057 256.018036,63.892208 259.440796,63.990585 
	C268.583527,64.253365 277.738739,64.080055 285.640533,64.080055 
	C284.399689,75.018799 283.160828,85.939972 281.921967,96.861137 
	C282.229950,97.025085 282.537933,97.189041 282.845886,97.352989 
	C290.740173,86.544014 298.634430,75.735039 307.096893,64.148087 
	C312.770813,64.148087 319.921631,64.148087 327.536224,64.074043 
	C328.000000,64.000000 328.000000,64.500000 327.654663,64.771103 
	C325.623993,67.310280 323.940399,69.579628 322.253113,71.846214 
	C308.062439,90.908623 293.871124,109.970528 279.232788,129.026901 
	C272.658264,129.013199 266.527893,129.119049 260.404633,128.957138 
	C256.320953,128.849167 252.247391,128.359680 248.265274,127.660172 
	C249.593231,117.409019 250.825226,107.538628 252.057220,97.668228 
	C251.745697,97.585854 251.434189,97.503471 251.122665,97.421089 
	C243.156647,107.971184 235.190613,118.521278 226.741867,129.045959 
	C215.856400,129.019501 205.453674,129.018494 195.181274,128.659241 
	C195.877884,126.426437 196.760483,124.584732 196.959351,122.671944 
	C198.300827,109.769028 199.509735,96.852226 200.734375,83.937332 
	C201.168808,79.355713 201.527374,74.766914 201.920563,70.181396 
	C201.336380,70.024628 200.752197,69.867859 200.168015,69.711098 
	C197.976212,74.553467 195.784409,79.395844 193.584976,84.255074 
	C184.029602,78.406685 158.464279,78.669106 152.795639,85.174225 
	C156.234695,86.467247 159.466324,87.572929 162.611237,88.886253 
	C170.451096,92.160187 178.467743,95.107941 186.004395,98.982300 
	C192.957031,102.556435 195.785156,111.421425 192.725189,117.868958 
	C190.013428,123.582764 184.739792,126.616356 179.052536,127.857605 
	C169.522629,129.937515 159.804840,131.976151 150.109650,132.290405 
	C134.897217,132.783447 119.637840,131.827866 104.337334,131.484406 
	C103.543488,123.476639 102.870743,116.690437 102.213730,110.062958 
	C118.077431,112.631844 132.941330,121.041443 148.889709,113.012054 
	C147.103775,111.291946 145.235596,110.269226 143.254623,109.562843 
	C137.632111,107.557930 131.817429,106.022583 126.347740,103.674911 
	C118.407295,100.266739 111.463478,95.680351 111.803902,84.519089 
	C106.595551,93.965157 102.013573,102.394455 97.321846,110.762222 
	C82.562912,137.085022 60.370235,151.916016 29.710220,154.070740 
	C28.576212,154.339920 27.788107,154.669952 27.000000,155.000000 
	C18.333334,155.000000 9.666667,155.000000 1.000000,154.500000 
	C10.682573,149.717148 20.670977,146.002670 29.966766,141.000977 
	C40.502689,135.332016 48.176292,126.428520 52.436687,115.159416 
	C58.006229,100.427513 63.084282,85.509056 68.286560,70.640335 
	C68.752502,69.308601 68.579285,67.753227 68.728378,65.679306 
	C68.848480,64.826584 68.943115,64.596283 69.037750,64.365974 
	C85.338470,64.310944 101.639183,64.241829 117.939911,64.238586 
	C118.843170,64.238411 119.746544,64.784119 120.207657,65.699066 
	C119.597710,66.956520 119.429970,67.590637 119.262222,68.224747 
	C119.262215,68.224747 119.098366,68.033035 119.000435,68.122864 
	C118.804756,68.283989 118.614372,68.401207 118.623451,68.419510 
	C118.723923,68.622101 118.855324,68.809341 118.978363,69.000740 
z"/>
<path fill="#FDFDFE" opacity="1.000000" stroke="none" 
	d="
M227.224579,129.071381 
	C235.190613,118.521278 243.156647,107.971184 251.122665,97.421089 
	C251.434189,97.503471 251.745697,97.585854 252.057220,97.668228 
	C250.825226,107.538628 249.593231,117.409019 247.994507,127.974571 
	C247.679428,129.154404 247.732681,130.063934 247.782562,130.063751 
	C258.222565,130.025146 268.662384,129.926712 279.101685,129.789139 
	C279.297729,129.786545 279.487335,129.295639 279.679962,129.032578 
	C293.871124,109.970528 308.062439,90.908623 322.253113,71.846214 
	C323.940399,69.579628 325.623993,67.310280 327.654663,65.021103 
	C328.000000,94.966148 328.000000,124.932304 328.000000,155.000000 
	C228.979126,155.000000 129.958221,155.000000 30.467316,154.781921 
	C29.997318,154.563828 30.056122,154.131622 30.056122,154.131622 
	C60.370235,151.916016 82.562912,137.085022 97.321846,110.762222 
	C102.013573,102.394455 106.595551,93.965157 111.803902,84.519089 
	C111.463478,95.680351 118.407295,100.266739 126.347740,103.674911 
	C131.817429,106.022583 137.632111,107.557930 143.254623,109.562843 
	C145.235596,110.269226 147.103775,111.291946 148.889709,113.012054 
	C132.941330,121.041443 118.077431,112.631844 102.213730,110.062958 
	C102.870743,116.690437 103.543488,123.476639 104.337334,131.484406 
	C119.637840,131.827866 134.897217,132.783447 150.109650,132.290405 
	C159.804840,131.976151 169.522629,129.937515 179.052536,127.857605 
	C184.739792,126.616356 190.013428,123.582764 192.725189,117.868958 
	C195.785156,111.421425 192.957031,102.556435 186.004395,98.982300 
	C178.467743,95.107941 170.451096,92.160187 162.611237,88.886253 
	C159.466324,87.572929 156.234695,86.467247 152.795639,85.174225 
	C158.464279,78.669106 184.029602,78.406685 193.584976,84.255074 
	C195.784409,79.395844 197.976212,74.553467 200.168015,69.711098 
	C200.752197,69.867859 201.336380,70.024628 201.920563,70.181396 
	C201.527374,74.766914 201.168808,79.355713 200.734375,83.937332 
	C199.509735,96.852226 198.300827,109.769028 196.959351,122.671944 
	C196.760483,124.584732 195.877884,126.426437 194.948578,128.930603 
	C205.283081,129.666840 215.980591,129.777512 226.678391,129.846298 
	C226.858780,129.847473 227.042435,129.340958 227.224579,129.071381 
z"/>
<path fill="#BCC3DE" opacity="1.000000" stroke="none" 
	d="
M29.710220,154.070740 
	C30.056122,154.131622 29.997318,154.563828 29.998659,154.781921 
	C29.250000,155.000000 28.500000,155.000000 27.375000,155.000000 
	C27.788107,154.669952 28.576212,154.339920 29.710220,154.070740 
z"/>
<path fill="#EE1D25" opacity="1.000000" stroke="none" 
	d="
M233.991104,29.199524 
	C210.763092,35.176510 187.144165,37.784370 162.682358,37.950119 
	C163.133377,36.745251 163.174911,35.917850 163.587585,35.638268 
	C171.005722,30.612505 177.971619,24.427000 186.104568,21.129122 
	C191.157883,19.080038 197.989319,21.567339 204.030899,21.758860 
	C209.363800,21.927914 214.708954,21.782045 220.046829,21.678288 
	C221.702637,21.646101 223.346832,21.207209 225.005569,21.106506 
	C241.644958,20.096294 257.209564,15.284504 272.067841,7.918374 
	C273.163940,7.374979 274.391083,7.095873 276.227539,6.462866 
	C267.727325,19.156525 253.884506,23.098089 242.620041,30.309893 
	C230.897720,37.814831 217.478958,43.021626 204.272827,47.757854 
	C191.207367,52.443638 177.614929,55.930470 164.007446,58.758663 
	C150.275360,61.612755 136.240860,63.011776 121.926071,63.917362 
	C131.151428,57.589893 140.375000,51.259815 149.606674,44.941586 
	C150.148972,44.570446 150.744598,44.041168 151.335754,44.013046 
	C159.836792,43.608578 168.348587,43.396290 176.841888,42.877483 
	C180.926331,42.627983 184.985321,41.885345 189.041977,41.274052 
	C196.266174,40.185448 203.585190,39.468662 210.669617,37.779083 
	C218.457748,35.921680 226.025955,33.142082 234.198242,30.392437 
	C235.056915,29.814171 235.407303,29.607737 235.757706,29.401302 
	C235.168839,29.334044 234.579971,29.266783 233.991104,29.199524 
z"/>
<path fill="#FEF5F5" opacity="1.000000" stroke="none" 
	d="
M233.996964,29.424686 
	C234.579971,29.266783 235.168839,29.334044 235.757706,29.401302 
	C235.407303,29.607737 235.056915,29.814171 234.372925,30.059725 
	C234.039322,30.098846 234.002823,29.649849 233.996964,29.424686 
z"/>
<path fill="#425BAB" opacity="1.000000" stroke="none" 
	d="
M68.781403,64.264893 
	C68.943115,64.596283 68.848480,64.826584 68.525269,65.352867 
	C68.372803,65.153831 68.448929,64.658829 68.781403,64.264893 
z"/>
<path fill="#425BAB" opacity="1.000000" stroke="none" 
	d="
M119.528458,68.043030 
	C119.429970,67.590637 119.597710,66.956520 120.080338,66.175552 
	C120.195038,66.639580 119.994873,67.250450 119.528458,68.043030 
z"/>
<path fill="#425BAB" opacity="1.000000" stroke="none" 
	d="
M119.105469,68.827896 
	C118.855324,68.809341 118.723923,68.622101 118.623451,68.419510 
	C118.614372,68.401207 118.804756,68.283989 119.087029,68.220230 
	C119.271553,68.227753 119.232567,68.655060 119.105469,68.827896 
z"/>
<path fill="#0F379C" opacity="1.000000" stroke="none" 
	d="
M279.232788,129.026901 
	C279.487335,129.295639 279.297729,129.786545 279.101685,129.789139 
	C268.662384,129.926712 258.222565,130.025146 247.782562,130.063751 
	C247.732681,130.063934 247.679428,129.154404 247.898529,128.355316 
	C252.247391,128.359680 256.320953,128.849167 260.404633,128.957138 
	C266.527893,129.119049 272.658264,129.013199 279.232788,129.026901 
z"/>
<path fill="#0F389C" opacity="1.000000" stroke="none" 
	d="
M226.741852,129.045944 
	C227.042435,129.340958 226.858780,129.847473 226.678391,129.846298 
	C215.980591,129.777512 205.283081,129.666840 194.818237,129.288818 
	C205.453674,129.018494 215.856400,129.019501 226.741852,129.045944 
z"/>
<path fill="#FFFEFE" opacity="1.000000" stroke="none" 
	d="
M116.003387,77.005379 
	C115.849075,77.216347 115.715080,77.452278 115.581085,77.688217 
	C115.573624,77.384651 115.566154,77.081093 115.809265,76.930573 
	C116.059853,77.083611 116.023705,77.030350 116.003387,77.005379 
z"/>
</svg>